# xmcd
#
# Track frame offsets:
#	150
#	16605
#	32262
#	52142
#	71222
#	88327
#	111100
#	133922
#	154277
#	174912
#	194975
#	214427
#	233910
#	256762
#	272790
#	294800
#
# Disc length: 4185 seconds
#
# Revision: 1
# Processed by: cddbd v1.5.1PL0 Copyright (c) Steve Scherf et al.
# Submitted via: CDex 1.50Beta5
#
DISCID=ef105710
DTITLE=イルカ - 全曲集
DYEAR=1998
DGENRE=
TTITLE0=なごり雪
TTITLE1=雨の物語
TTITLE2=鳥の記憶
TTITLE3=サラダの国から来た娘
TTITLE4=海岸通
TTITLE5=いつか冷たい雨が
TTITLE6=夜明けのグッドバイ
TTITLE7=すべてがラブ・ソング
TTITLE8=Follow Me
TTITLE9=もう海には帰れない
TTITLE10=時の子守唄
TTITLE11=女はつらいよ
TTITLE12=傘の雫
TTITLE13=星の長距離電話
TTITLE14=天使からの伝言
TTITLE15=花一輪
EXTD=
EXTT0=
EXTT1=
EXTT2=
EXTT3=
EXTT4=
EXTT5=
EXTT6=
EXTT7=
EXTT8=
EXTT9=
EXTT10=
EXTT11=
EXTT12=
EXTT13=
EXTT14=
EXTT15=
PLAYORDER=
